<?xml version="1.0" encoding="utf-8"?>
<!-- Generator: Adobe Illustrator 27.2.0, SVG Export Plug-In . SVG Version: 6.00 Build 0)  -->
<svg version="1.1" xmlns="http://www.w3.org/2000/svg" xmlns:xlink="http://www.w3.org/1999/xlink" x="0px" y="0px"
	 viewBox="0 0 512 512" style="enable-background:new 0 0 512 512;" xml:space="preserve">
<style type="text/css">
	.st0{fill:#326CE5;}
	.st1{fill:#FFFFFF;}
</style>
<g id="Layer_2">
	<path class="st0" d="M511.8,326c0,3.6-0.7,7.2-2,10.7c-1.2,3.4-3,6.7-5.4,9.6l-44.7,55.6l-0.3,0.3l-76.3,94.9l-1.8,2.2
		c-3,3.7-6.8,6.7-11,8.9c-4.8,2.5-10.1,3.8-15.6,3.8H157.4c-10.3,0.1-20.1-4.5-26.6-12.5L7.8,346.4c-0.7-0.9-1.3-1.8-1.9-2.7
		c-5.2-7.7-6.9-17-4.8-26l43.6-190.6l0-0.2c1.6-7.1,5.5-13.4,10.9-18c2.2-1.9,4.7-3.6,7.5-4.8l178.1-85c4.1-2,8.6-3.2,13.2-3.5
		c5.7-0.2,11.3,1,16.4,3.5L448.6,104c9.3,4.4,16.1,12.9,18.4,22.9l15.4,66.9l3,13.1l8.3,35.9l1.3,5.8l6.3,27.4l9.6,41.8
		C511.5,320.5,511.8,323.2,511.8,326z"/>
	<path class="st0" d="M511.8,326c0,3.6-0.7,7.2-2,10.7c-1.2,3.4-3,6.7-5.4,9.6l-44.7,55.6l-0.3,0.3l-76.3,94.9l-1.8,2.2
		c-3,3.7-6.8,6.7-11,8.9c-4.8,2.5-10.1,3.8-15.6,3.8H157.4c-10.3,0.1-20.1-4.5-26.6-12.5L7.8,346.4c-0.7-0.9-1.3-1.8-1.9-2.7
		c-5.2-7.7-6.9-17-4.8-26l43.6-190.6l0-0.2c1.6-7.1,5.5-13.4,10.9-18c2.2-1.9,4.7-3.6,7.5-4.8l178.1-85c4.1-2,8.6-3.2,13.2-3.5
		c5.7-0.2,11.3,1,16.4,3.5L448.6,104c9.3,4.4,16.1,12.9,18.4,22.9l15.4,66.9l3,13.1l8.3,35.9l1.3,5.8l6.3,27.4l9.6,41.8
		C511.5,320.5,511.8,323.2,511.8,326z"/>
</g>
<g id="Layer_1">
	<path class="st1" d="M511.8,326c0,3.6-0.7,7.2-2,10.7c-0.3-0.1-0.6-0.2-0.9-0.3L60.1,122.8l37.5,77.6l379.1,180.4l-16.9,21
		l-0.3,0.3L116,238.8l82,169.9l183.3,87.2c0.7,0.3,1.3,0.8,1.9,1.3l-1.8,2.2c-3,3.7-6.8,6.7-11,8.9l-181.7-86.5
		c-1.6-0.8-2.9-2.1-3.7-3.7L44.6,127.2l0-0.2c1.6-7.1,5.5-13.4,10.9-18l114.1,54.3l122.1-58.2c1.4-0.7,3.1-0.7,4.5,0l186,88.6
		l3,13.1l-191.3-91.2l-33.7,16.1l233.2,111l1.3,5.8l6.3,27.4h0L229.4,146.5L182,169.1L511.8,326z"/>
</g>
</svg>
